<svg xmlns="http://www.w3.org/2000/svg">
  <symbol fill="none" viewBox="0 0 24 24" id="chevron-left" xmlns="http://www.w3.org/2000/svg">
    <g clip-path="url(#aa)">
      <path d="M15 19.5 7.5 12 15 4.5" stroke="#13101E" stroke-width="2" stroke-linecap="round" stroke-linejoin="round" />
    </g>
    <defs>
      <clipPath id="aa">
        <path fill="#fff" d="M0 0h24v24H0z" />
      </clipPath>
    </defs>
  </symbol>
  <symbol fill="none" viewBox="0 0 24 24" id="chevron-bottom" xmlns="http://www.w3.org/2000/svg">
    <path d="M19.5 9 12 16.5 4.5 9" stroke="#13101E" stroke-width="2" stroke-linecap="round" stroke-linejoin="round" />
  </symbol>
  <symbol fill="none" viewBox="0 0 24 24" id="categories" xmlns="http://www.w3.org/2000/svg">
    <g clip-path="url(#aa)" stroke="#13101E" stroke-width="2" stroke-linecap="round" stroke-linejoin="round">
      <path d="M7.125 10.5a3.375 3.375 0 1 0 0-6.75 3.375 3.375 0 0 0 0 6.75ZM16.875 10.5a3.375 3.375 0 1 0 0-6.75 3.375 3.375 0 0 0 0 6.75ZM7.125 20.25a3.375 3.375 0 1 0 0-6.75 3.375 3.375 0 0 0 0 6.75ZM16.875 20.25a3.375 3.375 0 1 0 0-6.75 3.375 3.375 0 0 0 0 6.75Z" />
    </g>
    <defs>
      <clipPath id="aa">
        <path fill="#fff" d="M0 0h24v24H0z" />
      </clipPath>
    </defs>
  </symbol>
  <symbol fill="none" viewBox="0 0 24 24" id="book-open" xmlns="http://www.w3.org/2000/svg">
    <path d="m12 21-.1-.15c-.695-1.042-1.042-1.563-1.5-1.94a4 4 0 0 0-1.378-.737C8.453 18 7.827 18 6.575 18H5.2c-1.12 0-1.68 0-2.108-.218a2 2 0 0 1-.874-.874C2 16.48 2 15.92 2 14.8V6.2c0-1.12 0-1.68.218-2.108a2 2 0 0 1 .874-.874C3.52 3 4.08 3 5.2 3h.4c2.24 0 3.36 0 4.216.436a4 4 0 0 1 1.748 1.748C12 6.04 12 7.16 12 9.4M12 21V9.4M12 21l.1-.15c.695-1.042 1.042-1.563 1.5-1.94a3.999 3.999 0 0 1 1.378-.737C15.547 18 16.173 18 17.425 18H18.8c1.12 0 1.68 0 2.108-.218a2 2 0 0 0 .874-.874C22 16.48 22 15.92 22 14.8V6.2c0-1.12 0-1.68-.218-2.108a2 2 0 0 0-.874-.874C20.48 3 19.92 3 18.8 3h-.4c-2.24 0-3.36 0-4.216.436a4 4 0 0 0-1.748 1.748C12 6.04 12 7.16 12 9.4" stroke="#13101E" stroke-width="2" stroke-linecap="round" stroke-linejoin="round" />
  </symbol>
  <symbol fill="none" viewBox="0 0 24 24" id="bag" xmlns="http://www.w3.org/2000/svg">
    <g stroke="#13101E" stroke-width="2" stroke-linecap="round" stroke-linejoin="round">
      <path d="M19.579 6.75H4.42a.75.75 0 0 0-.745.667l-1.334 12a.75.75 0 0 0 .746.833h17.824a.75.75 0 0 0 .745-.833l-1.333-12a.75.75 0 0 0-.745-.667ZM8.25 5.75a3.75 3.75 0 0 1 7.5 0" />
    </g>
  </symbol>
  <symbol fill="none" viewBox="0 0 24 24" id="auto-fill" xmlns="http://www.w3.org/2000/svg">
    <path d="M16.333 16.333 8 8M8 16.333V8h8.333" stroke="#7E7E7E" stroke-width="2" stroke-linecap="round" stroke-linejoin="round" />
  </symbol>
  <symbol fill="none" viewBox="0 0 24 24" id="arrow" xmlns="http://www.w3.org/2000/svg">
    <path d="M5 12.5h14m0 0L14.5 8m4.5 4.5L14.5 17" stroke="currentColor" stroke-width="2" stroke-linecap="round" stroke-linejoin="round" />
  </symbol>
  <symbol fill="none" viewBox="0 0 24 24" id="add-to-homescreen" xmlns="http://www.w3.org/2000/svg">
    <g clip-path="url(#aa)" stroke="#13101E" stroke-width="2" stroke-linecap="round" stroke-linejoin="round">
      <path d="M12 7.757v8.486M16.243 12H7.757M19.023 3.75H4.477a.727.727 0 0 0-.727.727v14.546c0 .401.326.727.727.727h14.546a.727.727 0 0 0 .727-.727V4.477a.727.727 0 0 0-.727-.727Z" />
    </g>
    <defs>
      <clipPath id="aa">
        <path fill="#fff" d="M0 0h24v24H0z" />
      </clipPath>
    </defs>
  </symbol>
  <symbol fill="none" viewBox="0 0 99 100" id="zara" xmlns="http://www.w3.org/2000/svg">
    <rect width="99" height="100" rx="8" fill="#F4F4F4" />
    <path d="M79.512 64.756 69.437 37.018 69.431 37h-.2l-2.074 5.7-3.777 10.377-.009-.008c-1.309-1.155-3.156-1.877-5.481-2.146l-.71-.073.704-.09c3.836-.69 6.414-3.112 6.414-6.03 0-4.003-3.764-6.796-9.156-6.796h-11.22v.202h3.26v20.68l-7.917-21.798-.007-.018h-.199l-2.074 5.7-8.002 21.985-.05.005a8.557 8.557 0 0 1-1.007.066H19.84l15.37-26.62.114-.2H16.527v8.235h.2c.035-4.011 2.37-8.035 7.532-8.035h6.226L15 64.956h20.861v-7.89h-.2c-.026 3.496-2.008 6.817-6.318 7.566l-.137.024 3.282-9.021h9.195l3.313 9.121h-3.269v.2h12.828v-.2h-3.282v-13.76h3.786c3.854 0 6.065 1.723 6.065 4.723v2.44c0 .27.018.663.038.992v.012l-2.035 5.592h-2.66v.2h5.505v-.2h-2.63l1.853-5.092.006.079.05.458.05.304c.31 1.878 1.028 3.258 2.134 4.103l.16.115c.84.585 1.884.88 3.106.88 1.617 0 2.696-.403 3.587-1.352l-.117-.11c-.82.758-1.51 1.064-2.372 1.064-1.47 0-2.24-1.783-2.24-3.541v-3.42a7.679 7.679 0 0 0-.393-2.497l-.036-.106v-.004h6.725l3.313 9.121H71.9v.2H83v-.2h-3.488Zm-46.95-9.32 4.529-12.444 4.519 12.443h-9.048Zm18.712-4.64v-12.66h2.891c3.862 0 5.9 2.296 5.9 6.636 0 4.617-1.17 6.025-5.005 6.025h-3.786Zm13.778 4.64-.02-.05a6.18 6.18 0 0 0-1.282-1.957l-.19-.19-.02-.018 3.72-10.23 4.52 12.444h-6.728Z" fill="#13101E" />
  </symbol>
  <symbol fill="none" viewBox="0 0 24 24" id="wishlist" xmlns="http://www.w3.org/2000/svg">
    <path d="M12 20.25S2.625 15 2.625 8.625A4.876 4.876 0 0 1 12 6.747h0a4.876 4.876 0 0 1 9.375 1.878C21.375 15 12 20.25 12 20.25Z" stroke="#13101E" stroke-width="2" stroke-linecap="round" stroke-linejoin="round" />
  </symbol>
  <symbol fill="none" viewBox="0 0 24 24" id="view-smilar" xmlns="http://www.w3.org/2000/svg">
    <rect x="-.032" y=".706" width="9" height="12.619" rx=".5" transform="scale(-1 1) rotate(42.412 -10.433 -7.592)" fill="#F1F1F1" stroke="#626262" />
    <rect x="6.216" y="5.942" width="9" height="15" rx=".5" transform="rotate(-15 6.216 5.942)" fill="#F1F1F1" stroke="#626262" />
    <rect x="12.147" y="7.624" width="9" height="12.619" rx=".5" transform="rotate(9.002 12.147 7.624)" fill="#F1F1F1" stroke="#626262" />
  </symbol>
  <symbol fill="none" viewBox="0 0 24 24" id="star" xmlns="http://www.w3.org/2000/svg">
    <g clip-path="url(#aa)">
      <path d="m12.414 17.881 4.728 2.996c.604.383 1.355-.187 1.175-.892l-1.366-5.374a.821.821 0 0 1 .266-.832l4.24-3.53c.557-.463.27-1.388-.446-1.434l-5.537-.36a.79.79 0 0 1-.68-.501l-2.065-5.2a.78.78 0 0 0-1.458 0l-2.065 5.2a.79.79 0 0 1-.68.501l-5.537.36c-.716.046-1.003.97-.446 1.435l4.24 3.529a.82.82 0 0 1 .266.832l-1.267 4.983c-.215.847.685 1.53 1.41 1.071l4.394-2.784a.77.77 0 0 1 .828 0Z" fill="#FF8C4B" stroke="#FF8C4B" stroke-width="2" stroke-linecap="round" stroke-linejoin="round" />
    </g>
    <defs>
      <clipPath id="aa">
        <path fill="#fff" d="M0 0h24v24H0z" />
      </clipPath>
    </defs>
  </symbol>
  <symbol fill="none" viewBox="0 0 24 24" id="sort" xmlns="http://www.w3.org/2000/svg">
    <g clip-path="url(#aa)" stroke="#13101E" stroke-width="2" stroke-linecap="round" stroke-linejoin="round">
      <path d="m13.5 15.75 3.75 3.75L21 15.75M17.25 10.5v9M4.5 12h6.75M4.5 6h12.75M4.5 18h5.25" />
    </g>
    <defs>
      <clipPath id="aa">
        <path fill="#fff" d="M0 0h24v24H0z" />
      </clipPath>
    </defs>
  </symbol>
  <symbol fill="none" viewBox="0 0 200 38" id="socials" xmlns="http://www.w3.org/2000/svg">
    <circle cx="19" cy="19" r="19" fill="#639599" />
    <path d="M12.509 20.708h2.84V32.4c0 .231.187.418.418.418h4.815c.23 0 .418-.187.418-.418V20.763h3.265c.212 0 .39-.159.415-.37l.496-4.304a.418.418 0 0 0-.415-.466H21v-2.698c0-.814.437-1.226 1.3-1.226h2.46c.23 0 .418-.187.418-.418v-3.95a.418.418 0 0 0-.418-.419h-3.389a3.319 3.319 0 0 0-.155-.003c-.588 0-2.632.116-4.246 1.6-1.789 1.647-1.54 3.617-1.48 3.959v3.155h-2.982a.418.418 0 0 0-.418.418v4.25c0 .23.187.417.418.417Z" fill="#1B4B66" />
    <circle cx="73" cy="19" r="19" fill="#639599" />
    <path fill-rule="evenodd" clip-rule="evenodd" d="M68.371 8.704c1.198-.055 1.58-.068 4.629-.068 3.05 0 3.431.013 4.629.068 1.195.054 2.011.244 2.725.522.739.287 1.365.67 1.989 1.295a5.503 5.503 0 0 1 1.295 1.988c.277.714.467 1.53.522 2.726.054 1.197.067 1.58.067 4.629 0 3.049-.013 3.431-.067 4.629-.055 1.195-.245 2.01-.522 2.725a5.503 5.503 0 0 1-1.295 1.989 5.503 5.503 0 0 1-1.989 1.294c-.714.278-1.53.468-2.725.522-1.198.055-1.58.068-4.629.068-3.05 0-3.431-.013-4.629-.068-1.195-.054-2.011-.244-2.725-.521a5.504 5.504 0 0 1-1.989-1.295 5.504 5.504 0 0 1-1.295-1.989c-.278-.714-.467-1.53-.522-2.725-.054-1.198-.067-1.58-.067-4.63 0-3.049.013-3.43.067-4.628.055-1.195.244-2.011.522-2.726a5.503 5.503 0 0 1 1.295-1.988 5.503 5.503 0 0 1 1.989-1.295c.714-.278 1.53-.468 2.725-.522Zm10.622 6.514a1.347 1.347 0 1 0 0-2.695 1.347 1.347 0 0 0 0 2.695Zm-.754 4.645a5.24 5.24 0 1 1-10.479 0 5.24 5.24 0 0 1 10.48 0Zm-1.785 0a3.454 3.454 0 1 1-6.908 0 3.454 3.454 0 0 1 6.908 0Z" fill="#1B4B66" />
    <circle cx="127" cy="19" r="19" fill="#639599" />
    <path d="M139.091 12.69a9.922 9.922 0 0 1-2.849.781 4.98 4.98 0 0 0 2.181-2.745 9.939 9.939 0 0 1-3.15 1.204 4.958 4.958 0 0 0-3.622-1.566 4.961 4.961 0 0 0-4.833 6.091 14.084 14.084 0 0 1-10.225-5.183 4.938 4.938 0 0 0-.672 2.494 4.96 4.96 0 0 0 2.207 4.13 4.942 4.942 0 0 1-2.247-.621l-.001.062a4.965 4.965 0 0 0 3.98 4.865 4.962 4.962 0 0 1-2.24.085 4.965 4.965 0 0 0 4.634 3.445 9.954 9.954 0 0 1-6.161 2.124c-.401 0-.796-.023-1.184-.07a14.045 14.045 0 0 0 7.605 2.23c9.126 0 14.116-7.56 14.116-14.116 0-.215-.005-.43-.015-.642a10.07 10.07 0 0 0 2.476-2.568Z" fill="#1B4B66" />
    <circle cx="181" cy="19" r="19" fill="#639599" />
    <path fill-rule="evenodd" clip-rule="evenodd" d="M191.992 11.686c.383.383.66.86.801 1.382.815 3.28.627 8.458.016 11.864a3.106 3.106 0 0 1-2.184 2.182c-1.915.522-9.622.522-9.622.522s-7.707 0-9.621-.522a3.102 3.102 0 0 1-2.184-2.182c-.82-3.265-.595-8.447-.016-11.848a3.097 3.097 0 0 1 2.184-2.183c1.915-.522 9.622-.537 9.622-.537s7.706 0 9.621.522c.523.141 1 .417 1.383.8ZM184.701 19l-6.168 3.701V15.3L184.701 19Z" fill="#1B4B66" />
  </symbol>
  <symbol fill="none" viewBox="0 0 24 24" id="small-plus" xmlns="http://www.w3.org/2000/svg">
    <g clip-path="url(#aa)" stroke="#13101E" stroke-width="2" stroke-linecap="round" stroke-linejoin="round">
      <path d="M12 7v10M17 12H7" />
    </g>
    <defs>
      <clipPath id="aa">
        <path fill="#fff" d="M0 0h24v24H0z" />
      </clipPath>
    </defs>
  </symbol>
  <symbol fill="none" viewBox="0 0 24 24" id="small-minus" xmlns="http://www.w3.org/2000/svg">
    <g clip-path="url(#aa)">
      <path d="M17 12H7" stroke="#13101E" stroke-width="2" stroke-linecap="round" stroke-linejoin="round" />
    </g>
    <defs>
      <clipPath id="aa">
        <path fill="#fff" d="M0 0h24v24H0z" />
      </clipPath>
    </defs>
  </symbol>
  <symbol fill="none" viewBox="0 0 58 58" id="skincare" xmlns="http://www.w3.org/2000/svg">
    <mask id="aa" style="mask-type:alpha" maskUnits="userSpaceOnUse" x="18" y="19" width="20" height="29">
      <path d="M18.8 30.125c-.632-5.694 3.824-10.673 9.552-10.673 5.729 0 10.185 4.98 9.553 10.673L36.227 45.22a2.074 2.074 0 0 1-2.06 1.845H22.538a2.074 2.074 0 0 1-2.06-1.845L18.8 30.125Z" fill="#17494D" />
    </mask>
    <g mask="url(#aa)" fill-rule="evenodd" clip-rule="evenodd" fill="#1B4B66">
      <path d="m34.703 45.05 1.677-15.095c.532-4.784-3.214-8.969-8.028-8.969s-8.559 4.185-8.027 8.97l1.677 15.095a.54.54 0 0 0 .536.48h11.629a.54.54 0 0 0 .536-.48Zm-6.35-25.598c-5.729 0-10.185 4.98-9.553 10.673l1.677 15.095a2.074 2.074 0 0 0 2.061 1.845h11.629a2.074 2.074 0 0 0 2.06-1.845l1.678-15.095c.632-5.694-3.824-10.673-9.553-10.673Z" />
      <path d="m34.738 11.133 1.39 2.385a676.419 676.419 0 0 1 4.116 7.166 230.151 230.151 0 0 1 1.894 3.407c.506.934.904 1.7 1.054 2.078.068.172.09.349.1.472.01.137.01.287.005.44-.01.308-.046.687-.1 1.116a56.69 56.69 0 0 1-.54 3.272c-.488 2.58-1.205 5.864-1.965 9.102-.76 3.238-1.566 6.44-2.233 8.857a62.22 62.22 0 0 1-.881 2.965c-.122.365-.237.678-.34.914a2.82 2.82 0 0 1-.174.343 1.339 1.339 0 0 1-.14.191.986.986 0 0 1-.371.264 1.273 1.273 0 0 1-.374.08c-.09.006-.187.007-.28.005a9.491 9.491 0 0 1-.67-.046 45.517 45.517 0 0 1-1.976-.25 255.976 255.976 0 0 1-5.633-.9c-1.228-.206-2.468-.419-3.619-.616-.759-.13-1.48-.254-2.132-.364-1.673-.285-2.856-.477-3.192-.506-.4-.034-.762-.254-1.015-.432a8.055 8.055 0 0 1-.909-.77c-.63-.605-1.353-1.414-2.084-2.288-1.465-1.75-3.016-3.826-3.997-5.205l-.418-.587.497-.522c.16-.169.327-.348.501-.535 1.015-1.09 2.289-2.46 4.23-3.805 2.284-1.583 5.467-3.122 10.273-4.279 4.295-1.033 6.347-4.128 7.406-7.887.819-2.906 1.007-6.065 1.172-8.832a98.09 98.09 0 0 1 .169-2.483l.236-2.75Zm1.318 5.746c-.162 2.686-.393 5.884-1.213 8.793-1.155 4.103-3.542 7.876-8.68 9.113-4.626 1.113-7.603 2.573-9.685 4.015-1.776 1.231-2.918 2.457-3.931 3.544l-.034.036a87.884 87.884 0 0 0 3.496 4.517c.715.855 1.392 1.608 1.955 2.149.282.27.518.47.702.6.125.088.19.117.206.125.468.047 1.72.253 3.29.52.658.111 1.38.235 2.14.365 1.148.197 2.38.408 3.608.615 2.039.343 4.047.671 5.592.894.774.111 1.422.194 1.895.24.118.011.222.02.312.026.06-.153.13-.35.211-.593.232-.692.523-1.679.854-2.875.66-2.389 1.46-5.568 2.216-8.792.757-3.224 1.468-6.48 1.95-9.026.24-1.275.422-2.359.523-3.166.05-.405.08-.725.087-.957a2.346 2.346 0 0 0-.002-.255c-.122-.288-.452-.93-.946-1.843-.511-.943-1.17-2.123-1.88-3.38a617.221 617.221 0 0 0-2.666-4.665Zm5.489 9.86Zm-5.496 25.703h-.002a.111.111 0 0 1 .002 0Z" />
      <path d="M33.691 34.136a.767.767 0 0 1 .687.84l-.767 5.922a.767.767 0 1 1-1.527-.153l.767-5.922a.767.767 0 0 1 .84-.687Z" />
    </g>
    <path fill-rule="evenodd" clip-rule="evenodd" d="M26.39 17.151a.767.767 0 0 0-.728.525l-.746 2.239.296-.063c.932-.194 2.147-.4 3.14-.4.994 0 2.209.206 3.14.4.102.02.201.042.297.063l-.747-2.24a.767.767 0 0 0-.727-.524H26.39Zm6.36 4.575-.006-.002-.021-.006a12.405 12.405 0 0 0-.416-.107c-.282-.07-.677-.164-1.126-.257-.914-.19-2-.368-2.829-.368-.828 0-1.914.178-2.828.368a30.125 30.125 0 0 0-1.542.364l-.022.006-.006.002-1.386.382 1.64-4.918a2.301 2.301 0 0 1 2.182-1.573h3.925c.99 0 1.87.634 2.183 1.573l1.639 4.918-1.387-.382Z" fill="#1B4B66" />
    <path d="M26.818 13.316v3.835h3.068v-3.835a1.534 1.534 0 0 0-3.068 0Z" fill="#1B4B66" />
    <path d="m29.488 12.318.399.998-8.428.324a1.288 1.288 0 1 1 .006-2.574l6.665.29a1.534 1.534 0 0 1 1.358.962ZM33.231 43.123a.767.767 0 1 1-1.534 0 .767.767 0 0 1 1.534 0Z" fill="#1B4B66" />
    <mask id="ab" style="mask-type:alpha" maskUnits="userSpaceOnUse" x="18" y="19" width="20" height="29">
      <path d="M18.8 30.125c-.632-5.694 3.824-10.673 9.552-10.673 5.729 0 10.185 4.98 9.553 10.673L36.227 45.22a2.074 2.074 0 0 1-2.06 1.845H22.538a2.074 2.074 0 0 1-2.06-1.845L18.8 30.125Z" fill="#17494D" />
    </mask>
    <g mask="url(#ab)">
      <path d="m27.5 33-8 3 1 4 1.5 6.5h11.5l2-1 1-8 1-7.5-1.5-5.5-1.5-.5-2 4.5-2 3-3 1.5Z" fill="url(#ac)" />
      <path fill-rule="evenodd" clip-rule="evenodd" d="m34.703 45.05 1.677-15.095c.532-4.784-3.214-8.969-8.028-8.969s-8.559 4.185-8.027 8.97l1.677 15.095a.54.54 0 0 0 .536.48h11.629a.54.54 0 0 0 .536-.48Zm-6.35-25.598c-5.729 0-10.185 4.98-9.553 10.673l1.677 15.095a2.074 2.074 0 0 0 2.061 1.845h11.629a2.074 2.074 0 0 0 2.06-1.845l1.678-15.095c.632-5.694-3.824-10.673-9.553-10.673Z" fill="#1B4B66" />
      <path fill-rule="evenodd" clip-rule="evenodd" d="m34.738 11.133 1.39 2.385a676.419 676.419 0 0 1 4.116 7.166 230.151 230.151 0 0 1 1.894 3.407c.506.934.904 1.7 1.054 2.078.068.172.09.349.1.472.01.137.01.287.005.44-.01.308-.046.687-.1 1.116a56.69 56.69 0 0 1-.54 3.272c-.488 2.58-1.205 5.864-1.965 9.102-.76 3.238-1.566 6.44-2.233 8.857a62.22 62.22 0 0 1-.881 2.965c-.122.365-.237.678-.34.914a2.82 2.82 0 0 1-.174.343 1.339 1.339 0 0 1-.14.191.986.986 0 0 1-.371.264 1.273 1.273 0 0 1-.374.08c-.09.006-.187.007-.28.005a9.491 9.491 0 0 1-.67-.046 45.517 45.517 0 0 1-1.976-.25 255.976 255.976 0 0 1-5.633-.9c-1.228-.206-2.468-.419-3.619-.616-.759-.13-1.48-.254-2.132-.364-1.673-.285-2.856-.477-3.192-.506-.4-.034-.762-.254-1.015-.432a8.055 8.055 0 0 1-.909-.77c-.63-.605-1.353-1.414-2.084-2.288-1.465-1.75-3.016-3.826-3.997-5.205l-.418-.587.497-.522c.16-.169.327-.348.501-.535 1.015-1.09 2.289-2.46 4.23-3.805 2.284-1.583 5.467-3.122 10.273-4.279 4.295-1.033 6.347-4.128 7.406-7.887.819-2.906 1.007-6.065 1.172-8.832a98.09 98.09 0 0 1 .169-2.483l.236-2.75Zm1.318 5.746c-.162 2.686-.393 5.884-1.213 8.793-1.155 4.103-3.542 7.876-8.68 9.113-4.626 1.113-7.603 2.573-9.685 4.015-1.776 1.231-2.918 2.457-3.931 3.544l-.034.036a87.884 87.884 0 0 0 3.496 4.517c.715.855 1.392 1.608 1.955 2.149.282.27.518.47.702.6.125.088.19.117.206.125.468.047 1.72.253 3.29.52.658.111 1.38.235 2.14.365 1.148.197 2.38.408 3.608.615 2.039.343 4.047.671 5.592.894.774.111 1.422.194 1.895.24.118.011.222.02.312.026.06-.153.13-.35.211-.593.232-.692.523-1.679.854-2.875.66-2.389 1.46-5.568 2.216-8.792.757-3.224 1.468-6.48 1.95-9.026.24-1.275.422-2.359.523-3.166.05-.405.08-.725.087-.957a2.346 2.346 0 0 0-.002-.255c-.122-.288-.452-.93-.946-1.843-.511-.943-1.17-2.123-1.88-3.38a617.221 617.221 0 0 0-2.666-4.665Zm5.489 9.86Zm-5.496 25.703h-.002a.111.111 0 0 1 .002 0Z" fill="#1B4B66" />
      <path fill-rule="evenodd" clip-rule="evenodd" d="M33.691 34.136a.767.767 0 0 1 .687.84l-.767 5.922a.767.767 0 1 1-1.527-.153l.767-5.922a.767.767 0 0 1 .84-.687Z" fill="#1B4B66" />
    </g>
    <path fill-rule="evenodd" clip-rule="evenodd" d="M26.39 17.151a.767.767 0 0 0-.728.525l-.746 2.239.296-.063c.932-.194 2.147-.4 3.14-.4.994 0 2.209.206 3.14.4.102.02.201.042.297.063l-.747-2.24a.767.767 0 0 0-.727-.524H26.39Zm6.36 4.575-.006-.002-.021-.006a12.405 12.405 0 0 0-.416-.107c-.282-.07-.677-.164-1.126-.257-.914-.19-2-.368-2.829-.368-.828 0-1.914.178-2.828.368a30.125 30.125 0 0 0-1.542.364l-.022.006-.006.002-1.386.382 1.64-4.918a2.301 2.301 0 0 1 2.182-1.573h3.925c.99 0 1.87.634 2.183 1.573l1.639 4.918-1.387-.382Z" fill="#1B4B66" />
    <path d="M26.818 13.316v3.835h3.068v-3.835a1.534 1.534 0 0 0-3.068 0Z" fill="#1B4B66" />
    <path d="m29.488 12.318.399.998-8.428.324a1.288 1.288 0 1 1 .006-2.574l6.665.29a1.534 1.534 0 0 1 1.358.962ZM33.231 43.123a.767.767 0 1 1-1.534 0 .767.767 0 0 1 1.534 0Z" fill="#1B4B66" />
    <defs>
      <linearGradient id="ac" x1="28" y1="21.5" x2="32" y2="46" gradientUnits="userSpaceOnUse">
        <stop stop-color="#fff" stop-opacity="0" />
        <stop offset="1" stop-color="#17494D" stop-opacity=".57" />
      </linearGradient>
    </defs>
  </symbol>
  <symbol fill="none" viewBox="0 0 24 24" id="search" xmlns="http://www.w3.org/2000/svg">
    <path fill-rule="evenodd" clip-rule="evenodd" d="M10.875 4a6.875 6.875 0 1 0 0 13.75 6.875 6.875 0 0 0 0-13.75ZM2 10.875a8.875 8.875 0 1 1 17.75 0 8.875 8.875 0 0 1-17.75 0Z" fill="#13101E" />
    <path fill-rule="evenodd" clip-rule="evenodd" d="M15.736 15.737a1 1 0 0 1 1.415 0l4.556 4.556a1 1 0 0 1-1.414 1.414l-4.557-4.556a1 1 0 0 1 0-1.414Z" fill="#13101E" />
  </symbol>
  <symbol fill="none" viewBox="0 0 24 24" id="review" xmlns="http://www.w3.org/2000/svg">
    <path d="M3 7.8c0-1.68 0-2.52.327-3.162a3 3 0 0 1 1.311-1.311C5.28 3 6.12 3 7.8 3h8.4c1.68 0 2.52 0 3.162.327a3 3 0 0 1 1.311 1.311C21 5.28 21 6.12 21 7.8v5.7c0 1.398 0 2.097-.228 2.648a3 3 0 0 1-1.624 1.624C18.597 18 17.898 18 16.5 18c-.489 0-.733 0-.96.053a2 2 0 0 0-.821.412c-.18.149-.326.344-.619.735l-1.46 1.947c-.217.29-.326.434-.459.486a.5.5 0 0 1-.362 0c-.133-.052-.242-.197-.459-.486L9.9 19.2c-.293-.39-.44-.586-.619-.735a2 2 0 0 0-.821-.412C8.233 18 7.989 18 7.5 18c-1.398 0-2.097 0-2.648-.228a3 3 0 0 1-1.624-1.624C3 15.597 3 14.898 3 13.5V7.8Z" stroke="#13101E" stroke-width="2" stroke-linecap="round" stroke-linejoin="round" />
    <path clip-rule="evenodd" d="M11.997 8.33c-.8-.908-2.133-1.153-3.135-.32-1.002.832-1.143 2.223-.356 3.208.468.585 1.614 1.635 2.466 2.39.352.311.528.467.74.53.18.055.39.055.571 0 .212-.063.388-.219.74-.53.852-.755 1.998-1.805 2.466-2.39a2.256 2.256 0 0 0-.356-3.209c-1.02-.823-2.336-.587-3.136.322Z" stroke="#13101E" stroke-width="2" stroke-linecap="round" stroke-linejoin="round" />
  </symbol>
  <symbol fill="none" viewBox="0 0 24 24" id="profile-fill" xmlns="http://www.w3.org/2000/svg">
    <path d="M12.248 15.86a6 6 0 1 0 0-12 6 6 0 0 0 0 12Z" fill="#1B4B66" />
    <path d="M20.856 20.378a10.504 10.504 0 0 0-3.38-3.112c-1.523-.879-4.92-1.36-5.228-1.403v-.003h-.023v.003c-.308.043-3.704.524-5.228 1.404-1.345.776-2.499 1.84-3.38 3.11-.22.317.017.732.402.732h16.435c.385 0 .622-.415.402-.731Z" fill="#1B4B66" />
  </symbol>
  <symbol fill="none" viewBox="0 0 24 24" id="profile" xmlns="http://www.w3.org/2000/svg">
    <g clip-path="url(#aa)">
      <path d="M3 20c2.336-2.477 5.507-4 9-4 3.493 0 6.664 1.523 9 4M16.5 7.5a4.5 4.5 0 1 1-9 0 4.5 4.5 0 0 1 9 0Z" stroke="#13101E" stroke-width="2" stroke-linecap="round" stroke-linejoin="round" />
    </g>
    <defs>
      <clipPath id="aa">
        <path fill="#fff" d="M0 0h24v24H0z" />
      </clipPath>
    </defs>
  </symbol>
  <symbol fill="none" viewBox="0 0 24 24" id="plus" xmlns="http://www.w3.org/2000/svg">
    <g clip-path="url(#aa)" stroke="#13101E" stroke-width="2" stroke-linecap="round" stroke-linejoin="round">
      <path d="M12 5v14M19 12H5" />
    </g>
    <defs>
      <clipPath id="aa">
        <path fill="#fff" d="M0 0h24v24H0z" />
      </clipPath>
    </defs>
  </symbol>
  <symbol fill="none" viewBox="0 0 24 24" id="placeholder" xmlns="http://www.w3.org/2000/svg">
    <path fill-rule="evenodd" clip-rule="evenodd" d="M14.75 4.5a1 1 0 0 1 1-1h3.75a1 1 0 0 1 1 1v3.75a1 1 0 1 1-2 0V5.5h-2.75a1 1 0 0 1-1-1ZM4.5 14.75a1 1 0 0 1 1 1v2.75h2.75a1 1 0 1 1 0 2H4.5a1 1 0 0 1-1-1v-3.75a1 1 0 0 1 1-1ZM19.5 14.75a1 1 0 0 1 1 1v3.75a1 1 0 0 1-1 1h-3.75a1 1 0 1 1 0-2h2.75v-2.75a1 1 0 0 1 1-1ZM3.5 4.5a1 1 0 0 1 1-1h3.75a1 1 0 0 1 0 2H5.5v2.75a1 1 0 0 1-2 0V4.5Z" fill="#13101E" />
  </symbol>
  <symbol fill="none" viewBox="0 0 49 82" id="phone" xmlns="http://www.w3.org/2000/svg">
    <rect width="49" height="82" rx="4" fill="#1B4B66" />
    <rect x="4" y="4" width="41" height="74" rx="4" fill="#fff" />
  </symbol>
  <symbol fill="none" viewBox="0 0 24 24" id="orders" xmlns="http://www.w3.org/2000/svg">
    <g clip-path="url(#aa)" stroke="#13101E" stroke-width="2" stroke-linecap="round" stroke-linejoin="round">
      <path d="M8 9h6M8 12h6M8 15h3M14.69 20.25H4.5a.75.75 0 0 1-.75-.75v-15a.75.75 0 0 1 .75-.75h15a.75.75 0 0 1 .75.75v10.19a.742.742 0 0 1-.216.526l-4.818 4.818a.74.74 0 0 1-.525.216v0Z" />
      <path d="M20.184 15H15v5.184" />
    </g>
    <defs>
      <clipPath id="aa">
        <path fill="#fff" d="M0 0h24v24H0z" />
      </clipPath>
    </defs>
  </symbol>
  <symbol fill="none" viewBox="0 0 24 24" id="notification" xmlns="http://www.w3.org/2000/svg">
    <path d="M5.269 9.75A6.74 6.74 0 0 1 12.051 3c3.712.028 6.68 3.113 6.68 6.835v.665c0 3.358.703 5.306 1.322 6.371A.75.75 0 0 1 19.408 18H4.592a.749.749 0 0 1-.645-1.13c.62-1.064 1.322-3.013 1.322-6.37v-.75Z" stroke="#13101E" stroke-width="2" stroke-linecap="round" stroke-linejoin="round" />
    <path d="M9 18v.75a3 3 0 0 0 6 0V18" stroke="#13101E" stroke-width="2" stroke-linecap="round" stroke-linejoin="round" />
  </symbol>
  <symbol fill="none" viewBox="0 0 24 24" id="microphone" xmlns="http://www.w3.org/2000/svg">
    <g clip-path="url(#aa)" stroke="#13101E" stroke-width="2" stroke-linecap="round" stroke-linejoin="round">
      <path d="M12 2.25h0A3.75 3.75 0 0 1 15.75 6v6A3.75 3.75 0 0 1 12 15.75h0A3.75 3.75 0 0 1 8.25 12V6A3.75 3.75 0 0 1 12 2.25v0ZM12 18.75v3" />
      <path d="M18.709 12.75a6.75 6.75 0 0 1-13.418 0" />
    </g>
    <defs>
      <clipPath id="aa">
        <path fill="#fff" d="M0 0h24v24H0z" />
      </clipPath>
    </defs>
  </symbol>
  <symbol fill="none"  viewBox="0 0 24 24" id="menu" xmlns="http://www.w3.org/2000/svg">
    <path d="M3.75 12h16.5M3.75 6h10.5M3.75 18h16.5" stroke="#131E56" stroke-width="2" stroke-linecap="round" stroke-linejoin="round" />
  </symbol>
 
  <symbol fill="none" viewBox="0 0 24 24" id="logout" xmlns="http://www.w3.org/2000/svg">
    <g clip-path="url(#aa)" stroke="#13101E" stroke-width="2" stroke-linecap="round" stroke-linejoin="round">
      <path d="M16.313 8.063 20.25 12l-3.938 3.938M9.75 12h10.5M9.75 20.25H4.5a.75.75 0 0 1-.75-.75v-15a.75.75 0 0 1 .75-.75h5.25" />
    </g>
    <defs>
      <clipPath id="aa">
        <path fill="#fff" d="M0 0h24v24H0z" />
      </clipPath>
    </defs>
  </symbol>
  <symbol fill="none" viewBox="0 0 108 22" id="logo" xmlns="http://www.w3.org/2000/svg">
    <g fill="#17494D">
      <path d="M10.697 21.357c-1.406 0-2.724-.258-3.956-.772a10.273 10.273 0 0 1-3.201-2.187 10.607 10.607 0 0 1-2.135-3.294C.902 13.852.651 12.497.651 11.04c0-1.441.251-2.78.754-4.014A10.292 10.292 0 0 1 3.54 3.757a10.064 10.064 0 0 1 3.2-2.213c1.215-.532 2.534-.798 3.957-.798 1.336 0 2.48.172 3.435.515.972.343 1.944.909 2.915 1.698.208.172.347.335.416.489.07.154.105.343.105.566 0 .326-.122.6-.365.823a1.418 1.418 0 0 1-.833.36c-.33.018-.65-.094-.963-.334a7.65 7.65 0 0 0-2.004-1.26c-.676-.292-1.579-.438-2.706-.438a6.877 6.877 0 0 0-2.89.617c-.901.412-1.7.978-2.394 1.699a7.909 7.909 0 0 0-1.587 2.521 8.018 8.018 0 0 0-.573 3.037c0 1.098.191 2.127.573 3.087a7.98 7.98 0 0 0 1.587 2.496 7.785 7.785 0 0 0 2.395 1.698 7.132 7.132 0 0 0 2.889.592c.885 0 1.718-.145 2.498-.437a9.996 9.996 0 0 0 2.29-1.261c.313-.223.617-.317.911-.283.313.017.573.137.781.36.208.206.313.498.313.875 0 .36-.14.678-.417.952-1.874 1.492-4 2.239-6.376 2.239ZM31.865 21.357c-1.527 0-2.924-.249-4.19-.747a9.914 9.914 0 0 1-3.28-2.135 9.942 9.942 0 0 1-2.108-3.268c-.503-1.27-.755-2.659-.755-4.168 0-1.51.252-2.89.755-4.143a9.655 9.655 0 0 1 2.108-3.242 9.405 9.405 0 0 1 3.28-2.136c1.266-.514 2.663-.772 4.19-.772 1.527 0 2.915.258 4.164.772a9.405 9.405 0 0 1 3.28 2.136 9.46 9.46 0 0 1 2.134 3.242c.503 1.252.754 2.633.754 4.143 0 1.51-.251 2.899-.755 4.168a9.736 9.736 0 0 1-2.134 3.268 9.914 9.914 0 0 1-3.279 2.135c-1.25.498-2.637.747-4.164.747Zm0-2.419c1.51 0 2.845-.343 4.008-1.03a7.549 7.549 0 0 0 2.733-2.83c.659-1.2.989-2.547.989-4.04 0-1.492-.33-2.83-.99-4.013a7.307 7.307 0 0 0-2.732-2.83c-1.163-.687-2.499-1.03-4.008-1.03-1.51 0-2.846.343-4.008 1.03a7.307 7.307 0 0 0-2.733 2.83c-.66 1.183-.989 2.521-.989 4.014 0 1.492.33 2.839.99 4.04a7.549 7.549 0 0 0 2.732 2.83c1.162.686 2.498 1.029 4.008 1.029ZM48.44 21.1c-.38 0-.702-.13-.962-.387a1.287 1.287 0 0 1-.39-.952V2.341c0-.394.13-.711.39-.952.26-.257.581-.385.963-.385h4.685c1.3 0 2.455.274 3.461.823 1.006.532 1.787 1.27 2.342 2.213.573.943.86 2.041.86 3.293 0 1.235-.313 2.325-.938 3.268-.624.926-1.474 1.63-2.55 2.11l3.982 6.33c.312.497.355.97.13 1.415-.226.429-.616.643-1.171.643-.503 0-.894-.214-1.171-.643l-4.477-7.102h-3.8v6.407c0 .378-.13.695-.39.953-.243.257-.564.385-.963.385Zm1.354-10.216h3.332c1.18 0 2.151-.326 2.915-.978.763-.669 1.145-1.526 1.145-2.573 0-1.132-.382-2.058-1.145-2.779-.764-.72-1.736-1.08-2.915-1.08h-3.332v7.41ZM65.978 21.1c-.486 0-.859-.206-1.119-.618-.26-.412-.286-.85-.078-1.312l7.313-17.266c.26-.6.686-.9 1.276-.9.624 0 1.05.3 1.275.9l7.34 17.317c.19.48.155.918-.105 1.312-.243.378-.616.566-1.119.566-.26 0-.512-.068-.755-.205a1.34 1.34 0 0 1-.494-.618l-1.458-3.602h-9.343l-1.483 3.602a1.28 1.28 0 0 1-.547.618c-.226.137-.46.205-.703.205Zm3.644-6.64h7.521L73.422 5.3l-3.8 9.16ZM86.49 8.182a.736.736 0 0 1-.65-.36.863.863 0 0 1-.027-.797c.313-.704.504-1.278.573-1.724.07-.446.07-.832 0-1.158a7.25 7.25 0 0 0-.208-.927 3.803 3.803 0 0 1-.13-1.029c0-.446.156-.815.468-1.106a1.583 1.583 0 0 1 1.12-.438c.537 0 .954.223 1.248.67.295.445.443 1.003.443 1.672 0 .446-.096.96-.286 1.544-.191.583-.434 1.158-.73 1.724a6.698 6.698 0 0 1-.91 1.39c-.33.36-.633.54-.911.54ZM95.221 21.1c-.382 0-.703-.13-.963-.387a1.334 1.334 0 0 1-.364-.952V2.341c0-.377.13-.694.39-.952.26-.257.573-.385.937-.385.382 0 .703.128.963.385.26.258.39.575.39.953v16.081h9.422c.382 0 .703.129.963.386.26.258.39.575.39.952 0 .378-.13.695-.39.953-.26.257-.581.385-.963.385H95.221Z" />
      <path fill-rule="evenodd" clip-rule="evenodd" d="M6.477 21.173a10.924 10.924 0 0 1-3.402-2.325l-.008-.008a11.248 11.248 0 0 1-2.263-3.491L.8 15.342C.265 14.008 0 12.572 0 11.039c0-1.517.265-2.937.802-4.255l.002-.004A10.934 10.934 0 0 1 3.07 3.31 10.716 10.716 0 0 1 6.477.957l.264.588A10.064 10.064 0 0 0 3.54 3.757a10.292 10.292 0 0 0-2.135 3.268C.902 8.26.651 9.598.651 11.039c0 1.458.251 2.813.754 4.065a10.607 10.607 0 0 0 2.135 3.294c.92.926 1.986 1.655 3.2 2.187 1.233.514 2.551.772 3.957.772 2.377 0 4.502-.747 6.376-2.239.278-.274.416-.592.416-.952 0-.377-.104-.669-.312-.875a1.112 1.112 0 0 0-.78-.36c-.295-.034-.6.06-.911.283a9.996 9.996 0 0 1-2.29 1.26 7.082 7.082 0 0 1-2.5.438 7.132 7.132 0 0 1-2.888-.591 7.785 7.785 0 0 1-2.395-1.699 7.98 7.98 0 0 1-1.587-2.496 8.284 8.284 0 0 1-.573-3.087c0-1.081.191-2.093.573-3.037.382-.96.91-1.8 1.587-2.521a7.785 7.785 0 0 1 2.395-1.699 6.877 6.877 0 0 1 2.889-.617c1.128 0 2.03.146 2.706.437a7.65 7.65 0 0 1 2.005 1.261c.312.24.633.352.962.335.33-.035.608-.155.833-.36.243-.224.365-.498.365-.824 0-.223-.035-.412-.105-.566-.069-.154-.208-.317-.416-.489-.971-.789-1.943-1.355-2.915-1.698-.954-.343-2.1-.515-3.435-.515-1.423 0-2.742.266-3.956.798L6.477.956C7.781.385 9.19.103 10.697.103c1.388 0 2.612.178 3.656.553 1.055.372 2.09.98 3.107 1.806l.004.003c.244.201.467.44.594.722.116.258.16.541.16.827 0 .506-.197.95-.572 1.295l-.001.001a2.07 2.07 0 0 1-1.206.527l-.017.002-.017.001c-.516.027-.987-.154-1.397-.47l-.013-.01-.013-.01a6.998 6.998 0 0 0-1.833-1.156l-.006-.002c-.563-.243-1.365-.384-2.446-.384a6.22 6.22 0 0 0-2.617.559A7.134 7.134 0 0 0 5.887 5.92a7.268 7.268 0 0 0-1.456 2.317l-.001.003a7.382 7.382 0 0 0-.526 2.798c0 1.021.177 1.97.527 2.85a7.34 7.34 0 0 0 1.456 2.293 7.134 7.134 0 0 0 2.189 1.552 6.474 6.474 0 0 0 2.62.535c.81 0 1.564-.133 2.266-.395a9.345 9.345 0 0 0 2.137-1.177l.006-.005c.398-.284.855-.453 1.347-.402.465.03.875.218 1.195.556.356.358.493.83.493 1.32 0 .545-.218 1.022-.607 1.407l-.024.024-.028.022C15.493 21.202 13.224 22 10.697 22c-1.488 0-2.893-.273-4.21-.823l-.01-.004Zm20.95.033a10.564 10.564 0 0 1-3.492-2.276l-.008-.009a10.583 10.583 0 0 1-2.244-3.476l-.002-.003c-.535-1.352-.8-2.822-.8-4.403 0-1.582.265-3.044.802-4.38a10.296 10.296 0 0 1 2.248-3.456 10.055 10.055 0 0 1 3.5-2.281c1.353-.55 2.833-.82 4.434-.82 1.6 0 3.073.27 4.41.82a10.056 10.056 0 0 1 3.496 2.279 10.103 10.103 0 0 1 2.276 3.457c.537 1.337.8 2.8.8 4.38 0 1.582-.263 3.052-.799 4.404v.002a10.377 10.377 0 0 1-2.275 3.481l-.005.005c-.983.972-2.15 1.73-3.492 2.276l-.004.001c-1.336.532-2.808.793-4.407.793-1.6 0-3.079-.26-4.43-.792l-.008-.002ZM39.308 3.654a9.405 9.405 0 0 0-3.279-2.136c-1.25-.514-2.637-.772-4.164-.772-1.527 0-2.924.258-4.19.772a9.405 9.405 0 0 0-3.28 2.136 9.655 9.655 0 0 0-2.108 3.242c-.503 1.252-.755 2.633-.755 4.143 0 1.51.252 2.899.755 4.168a9.942 9.942 0 0 0 2.108 3.268 9.914 9.914 0 0 0 3.28 2.135c1.266.498 2.663.747 4.19.747 1.527 0 2.915-.249 4.164-.747a9.914 9.914 0 0 0 3.28-2.135 9.736 9.736 0 0 0 2.134-3.268c.503-1.27.754-2.659.754-4.168 0-1.51-.251-2.89-.755-4.143a9.46 9.46 0 0 0-2.134-3.242Zm-1.272 3.68-.002-.003a6.66 6.66 0 0 0-2.495-2.585c-1.05-.62-2.268-.938-3.674-.938-1.406 0-2.624.318-3.675.938a6.66 6.66 0 0 0-2.494 2.585l-.002.004c-.6 1.079-.908 2.308-.908 3.704 0 1.394.307 2.633.909 3.73a6.902 6.902 0 0 0 2.498 2.59c1.05.618 2.267.936 3.672.936 1.405 0 2.622-.318 3.671-.937a6.902 6.902 0 0 0 2.499-2.588c.602-1.098.909-2.337.909-3.731 0-1.396-.307-2.625-.908-3.704Zm.57 7.744a7.549 7.549 0 0 1-2.733 2.83c-1.163.687-2.499 1.03-4.008 1.03-1.51 0-2.846-.343-4.008-1.03a7.549 7.549 0 0 1-2.733-2.83c-.66-1.2-.989-2.547-.989-4.04 0-1.492.33-2.83.99-4.013a7.307 7.307 0 0 1 2.732-2.83c1.162-.687 2.498-1.03 4.008-1.03 1.51 0 2.845.343 4.008 1.03a7.307 7.307 0 0 1 2.733 2.83c.659 1.183.989 2.521.989 4.014 0 1.492-.33 2.839-.99 4.04Zm19.465 5.378-4.477-7.102h-3.8v6.407c0 .378-.13.695-.39.953-.243.257-.564.385-.963.385-.382 0-.703-.128-.963-.386a1.287 1.287 0 0 1-.39-.952V2.341c0-.394.13-.711.39-.952.26-.257.581-.385.963-.385h4.685c1.3 0 2.455.274 3.461.823 1.006.532 1.787 1.27 2.342 2.213.573.943.86 2.041.86 3.293 0 1.235-.313 2.325-.938 3.268a5.796 5.796 0 0 1-1.969 1.816c-.186.106-.38.204-.581.294l3.982 6.33c.312.497.355.97.13 1.415-.226.429-.616.643-1.171.643-.503 0-.894-.214-1.171-.643Zm-.845-7.492 3.61 5.737c.406.649.505 1.36.159 2.043l-.005.009a1.782 1.782 0 0 1-.723.748 2.106 2.106 0 0 1-1.025.242c-.732 0-1.326-.332-1.72-.94l-.004-.007-4.285-6.798h-2.788v5.763c0 .538-.191 1.018-.573 1.4-.38.398-.88.582-1.431.582a1.97 1.97 0 0 1-1.423-.575 1.925 1.925 0 0 1-.581-1.407V2.341c0-.545.186-1.038.589-1.414A1.97 1.97 0 0 1 48.44.36h4.685c1.394 0 2.658.295 3.772.902 1.105.585 1.974 1.403 2.591 2.45.64 1.056.95 2.27.95 3.621 0 1.348-.343 2.562-1.043 3.62l-.003.005a6.44 6.44 0 0 1-2.167 2.006Zm-6.781-2.723h2.68c1.05 0 1.862-.286 2.487-.819.616-.541.923-1.22.923-2.089 0-.973-.32-1.725-.944-2.313-.627-.593-1.431-.903-2.465-.903h-2.681v6.124Zm-.65.643v-7.41h3.33c1.18 0 2.152.36 2.916 1.08.763.72 1.145 1.647 1.145 2.78 0 1.046-.382 1.903-1.145 2.572-.764.652-1.736.978-2.915.978h-3.332Zm22.3-8.98c.26-.6.685-.9 1.275-.9.624 0 1.05.3 1.275.9l7.34 17.317c.19.48.155.918-.105 1.312-.243.378-.616.566-1.119.566-.26 0-.512-.068-.755-.205a1.34 1.34 0 0 1-.494-.618l-1.458-3.602h-9.343l-1.483 3.602a1.28 1.28 0 0 1-.547.618c-.226.137-.46.205-.703.205-.486 0-.859-.205-1.119-.617-.26-.412-.286-.85-.078-1.312l7.313-17.266Zm-7.912 17.011 7.313-17.264c.165-.38.402-.711.734-.946A1.94 1.94 0 0 1 73.37.36c.42 0 .822.103 1.165.345.338.238.568.576.715.962l7.34 17.319c.259.651.223 1.31-.163 1.896-.378.584-.971.86-1.666.86a2.17 2.17 0 0 1-1.078-.29l-.024-.014-.023-.015a1.985 1.985 0 0 1-.728-.908l-1.294-3.198h-8.465l-1.325 3.217a1.926 1.926 0 0 1-.81.913c-.317.19-.665.296-1.036.296a1.899 1.899 0 0 1-1.67-.92c-.38-.6-.413-1.262-.125-1.908Zm12.96-4.454L73.422 5.3l-3.8 9.16h7.521Zm-6.551-.643h5.589L73.415 7.01l-2.823 6.807Zm14.686-5.67-.013-.023a1.499 1.499 0 0 1-.048-1.358c.303-.683.469-1.199.526-1.564.061-.395.055-.7.006-.928l-.003-.016-.003-.016a6.621 6.621 0 0 0-.19-.845l-.002-.01a4.439 4.439 0 0 1-.154-1.2c0-.614.223-1.155.672-1.575A2.237 2.237 0 0 1 87.635 0c.758 0 1.38.333 1.794.96.38.575.549 1.263.549 2.025 0 .533-.114 1.117-.318 1.742a12.052 12.052 0 0 1-.768 1.816 7.333 7.333 0 0 1-.999 1.52l-.01.01c-.364.399-.831.753-1.393.753-.51 0-.928-.24-1.198-.656l-.014-.022Zm3.034-1.895c.295-.566.538-1.141.729-1.724.19-.584.286-1.098.286-1.544 0-.67-.148-1.227-.443-1.673-.294-.446-.711-.669-1.249-.669-.434 0-.807.146-1.119.438-.312.291-.468.66-.468 1.106 0 .378.043.72.13 1.03.087.291.156.6.208.926.07.326.07.712 0 1.158-.07.446-.26 1.02-.573 1.724a.863.863 0 0 0 .026.797c.157.24.373.36.651.36s.581-.18.91-.54c.33-.377.634-.84.912-1.39ZM93.79 21.16l-.007-.008a1.973 1.973 0 0 1-.54-1.39V2.341c0-.541.194-1.025.581-1.407.381-.377.858-.575 1.397-.575a1.97 1.97 0 0 1 1.423.575c.387.382.581.866.581 1.407V17.78h8.771a1.97 1.97 0 0 1 1.423.575c.387.382.581.866.581 1.406 0 .541-.194 1.024-.581 1.407a1.97 1.97 0 0 1-1.423.575H95.221a1.97 1.97 0 0 1-1.423-.575l-.008-.008Zm2.784-2.737V2.342c0-.378-.13-.695-.39-.953a1.316 1.316 0 0 0-.963-.385c-.364 0-.677.128-.937.385-.26.258-.39.575-.39.953v17.42c0 .377.121.694.364.951.26.258.582.386.963.386h10.775c.382 0 .703-.128.963-.386.26-.257.39-.574.39-.952 0-.377-.13-.694-.39-.952a1.315 1.315 0 0 0-.963-.386h-9.421Z" />
    </g>
  </symbol>
  <symbol fill="none" viewBox="0 0 24 24" id="location" xmlns="http://www.w3.org/2000/svg">
    <g clip-path="url(#aa)" stroke="#13101E" stroke-width="2" stroke-linecap="round" stroke-linejoin="round">
      <path d="M12 12.75a3 3 0 1 0 0-6 3 3 0 0 0 0 6Z" />
      <path d="M19.5 9.75c0 6.75-7.5 12-7.5 12s-7.5-5.25-7.5-12a7.5 7.5 0 0 1 15 0v0Z" />
    </g>
    <defs>
      <clipPath id="aa">
        <path fill="#fff" d="M0 0h24v24H0z" />
      </clipPath>
    </defs>
  </symbol>
  <symbol fill="none" viewBox="0 0 24 24" id="home" xmlns="http://www.w3.org/2000/svg">
    <g clip-path="url(#aa)">
      <path d="M14.25 19.5V15a.75.75 0 0 0-.75-.75h-3a.75.75 0 0 0-.75.75v4.5a.75.75 0 0 1-.75.75H4.5a.75.75 0 0 1-.75-.75v-8.668a.75.75 0 0 1 .245-.555l7.5-6.82a.75.75 0 0 1 1.009 0l7.5 6.82a.751.751 0 0 1 .246.555V19.5a.75.75 0 0 1-.75.75H15a.75.75 0 0 1-.75-.75v0Z" stroke="#13101E" stroke-width="2" stroke-linecap="round" stroke-linejoin="round" />
    </g>
    <defs>
      <clipPath id="aa">
        <path fill="#fff" d="M0 0h24v24H0z" />
      </clipPath>
    </defs>
  </symbol>
  <symbol fill="none" viewBox="0 0 24 24" id="filter" xmlns="http://www.w3.org/2000/svg">
    <g clip-path="url(#aa)">
      <path d="M3.945 4.5h16.11a.75.75 0 0 1 .554 1.255l-6.164 6.78a.75.75 0 0 0-.195.505v5.309a.75.75 0 0 1-.334.624l-3 2a.75.75 0 0 1-1.166-.624V13.04a.75.75 0 0 0-.195-.504L3.39 5.755A.75.75 0 0 1 3.945 4.5v0Z" stroke="#13101E" stroke-width="2" stroke-linecap="round" stroke-linejoin="round" />
    </g>
    <defs>
      <clipPath id="aa">
        <path fill="#fff" d="M0 0h24v24H0z" />
      </clipPath>
    </defs>
  </symbol>
  <symbol fill="none" viewBox="0 0 24 24" id="eye" xmlns="http://www.w3.org/2000/svg">
    <path d="M2.42 12.713c-.136-.215-.204-.323-.242-.49a1.173 1.173 0 0 1 0-.446c.038-.167.106-.274.242-.49C3.546 9.505 6.895 5 12 5s8.455 4.505 9.58 6.287c.137.215.205.323.243.49.029.125.029.322 0 .446-.038.167-.106.274-.242.49C20.455 14.495 17.105 19 12 19c-5.106 0-8.455-4.505-9.58-6.287Z" stroke="#000" stroke-width="2" stroke-linecap="round" stroke-linejoin="round" />
    <path d="M12 15a3 3 0 1 0 0-6 3 3 0 0 0 0 6Z" stroke="#000" stroke-width="2" stroke-linecap="round" stroke-linejoin="round" />
  </symbol>
  <symbol fill="none" viewBox="0 0 24 24" id="ellipses" xmlns="http://www.w3.org/2000/svg">
    <path d="M12 13a1 1 0 1 0 0-2 1 1 0 0 0 0 2ZM12 6a1 1 0 1 0 0-2 1 1 0 0 0 0 2ZM12 20a1 1 0 1 0 0-2 1 1 0 0 0 0 2Z" stroke="#13101E" stroke-width="2" stroke-linecap="round" stroke-linejoin="round" />
  </symbol>
  <symbol fill="none" viewBox="0 0 24 24" id="edit" xmlns="http://www.w3.org/2000/svg">
    <g clip-path="url(#aa)" stroke="#13101E" stroke-width="2" stroke-linecap="round" stroke-linejoin="round">
      <path d="M8.69 20.25H4.5a.75.75 0 0 1-.75-.75v-4.19a.75.75 0 0 1 .22-.53L15.22 3.53a.75.75 0 0 1 1.06 0l4.19 4.19a.75.75 0 0 1 0 1.06L9.22 20.03a.75.75 0 0 1-.53.22ZM12.75 6 18 11.25M10.154 19.154 5 14" />
    </g>
    <defs>
      <clipPath id="aa">
        <path fill="#fff" d="M0 0h24v24H0z" />
      </clipPath>
    </defs>
  </symbol>
  <symbol fill="none" viewBox="0 0 24 24" id="download" xmlns="http://www.w3.org/2000/svg">
    <g clip-path="url(#aa)" stroke="#13101E" stroke-width="2" stroke-linecap="round" stroke-linejoin="round">
      <path d="M8.063 10.313 12 14.25l3.938-3.938M12 3.75v10.5M20.25 14.25v5.25a.75.75 0 0 1-.75.75h-15a.75.75 0 0 1-.75-.75v-5.25" />
    </g>
    <defs>
      <clipPath id="aa">
        <path fill="#fff" d="M0 0h24v24H0z" />
      </clipPath>
    </defs>
  </symbol>
  <symbol fill="none" viewBox="0 0 24 24" id="delete-small" xmlns="http://www.w3.org/2000/svg">
    <path d="M14.833 7.2v-.64c0-.896 0-1.344-.181-1.686a1.635 1.635 0 0 0-.729-.7C13.567 4 13.1 4 12.167 4h-1.334c-.933 0-1.4 0-1.756.174a1.635 1.635 0 0 0-.729.7c-.181.342-.181.79-.181 1.686v.64m1.666 4.4v4m3.334-4v4M4 7.2h15m-1.667 0v8.96c0 1.344 0 2.016-.272 2.53-.24.451-.622.818-1.093 1.048-.534.262-1.235.262-2.635.262H9.667c-1.4 0-2.1 0-2.635-.262a2.452 2.452 0 0 1-1.093-1.048c-.272-.514-.272-1.186-.272-2.53V7.2" stroke="#13101E" stroke-width="1.6" stroke-linecap="round" stroke-linejoin="round" />
  </symbol>
  <symbol fill="none" viewBox="0 0 24 24" id="delete" xmlns="http://www.w3.org/2000/svg">
    <path d="M16 6v-.8c0-1.12 0-1.68-.218-2.108a2 2 0 0 0-.874-.874C14.48 2 13.92 2 12.8 2h-1.6c-1.12 0-1.68 0-2.108.218a2 2 0 0 0-.874.874C8 3.52 8 4.08 8 5.2V6m2 5.5v5m4-5v5M3 6h18m-2 0v11.2c0 1.68 0 2.52-.327 3.162a3 3 0 0 1-1.311 1.311C16.72 22 15.88 22 14.2 22H9.8c-1.68 0-2.52 0-3.162-.327a3 3 0 0 1-1.311-1.311C5 19.72 5 18.88 5 17.2V6" stroke="#13101E" stroke-width="2" stroke-linecap="round" stroke-linejoin="round" />
  </symbol>
  <symbol fill="none" viewBox="0 0 24 24" id="del" xmlns="http://www.w3.org/2000/svg">
    <path d="M19 12.5H5m0 0L9.5 8M5 12.5 9.5 17" stroke="#13101E" stroke-width="2" stroke-linecap="round" stroke-linejoin="round" />
  </symbol>
  <symbol fill="none" viewBox="0 0 24 24" id="cross-small" xmlns="http://www.w3.org/2000/svg">
    <path d="M17 7 7 17M7 7l10 10" stroke="#7E7E7E" stroke-width="2" stroke-linecap="round" stroke-linejoin="round" />
  </symbol>
  <symbol fill="none" viewBox="0 0 24 24" id="cross" xmlns="http://www.w3.org/2000/svg">
    <g clip-path="url(#aa)" stroke="#13101E" stroke-width="2" stroke-linecap="round" stroke-linejoin="round">
      <path d="m6.167 6.166 11.667 11.668M17.834 6.166 6.166 17.834" />
    </g>
    <defs>
      <clipPath id="aa">
        <path fill="#fff" d="M0 0h24v24H0z" />
      </clipPath>
    </defs>
  </symbol>
  <symbol fill="none" viewBox="0 0 24 24" id="credit-card" xmlns="http://www.w3.org/2000/svg">
    <path d="M22 10H2m9 4H6M2 8.2v7.6c0 1.12 0 1.68.218 2.108a2 2 0 0 0 .874.874C3.52 19 4.08 19 5.2 19h13.6c1.12 0 1.68 0 2.108-.218a2 2 0 0 0 .874-.874C22 17.48 22 16.92 22 15.8V8.2c0-1.12 0-1.68-.218-2.108a2 2 0 0 0-.874-.874C20.48 5 19.92 5 18.8 5H5.2c-1.12 0-1.68 0-2.108.218a2 2 0 0 0-.874.874C2 6.52 2 7.08 2 8.2Z" stroke="#13101E" stroke-width="2" stroke-linecap="round" stroke-linejoin="round" />
  </symbol>
  <symbol fill="none" viewBox="0 0 24 24" id="coins-hand" xmlns="http://www.w3.org/2000/svg">
    <path d="M20 5c0 1.657-3.582 3-8 3S4 6.657 4 5m16 0c0-1.657-3.582-3-8-3S4 3.343 4 5m16 0v14c0 1.657-3.582 3-8 3s-8-1.343-8-3V5m16 4.667c0 1.656-3.582 3-8 3s-8-1.344-8-3m16 4.663c0 1.657-3.582 3-8 3s-8-1.343-8-3" stroke="#13101E" stroke-width="2" stroke-linecap="round" stroke-linejoin="round" />
  </symbol>
  <symbol fill="none" viewBox="0 0 24 24" id="chevron-up" xmlns="http://www.w3.org/2000/svg">
    <g clip-path="url(#aa)">
      <path d="M4.5 15 12 7.5l7.5 7.5" stroke="#13101E" stroke-width="2" stroke-linecap="round" stroke-linejoin="round" />
    </g>
    <defs>
      <clipPath id="aa">
        <path fill="#fff" d="M0 0h24v24H0z" />
      </clipPath>
    </defs>
  </symbol>
  <symbol fill="none" viewBox="0 0 24 24" id="chevron-right-small" xmlns="http://www.w3.org/2000/svg">
    <path d="m10 8 4 4-4 4" stroke="#13101E" stroke-width="2" stroke-linecap="round" stroke-linejoin="round" />
  </symbol>
  <symbol fill="none" viewBox="0 0 24 24" id="chevron-right" xmlns="http://www.w3.org/2000/svg">
    <path d="m9 4.5 7.5 7.5L9 19.5" stroke="#13101E" stroke-width="2" stroke-linecap="round" stroke-linejoin="round" />
  </symbol>
  <symbol fill="none" viewBox="0 0 24 24" id="svg-close_form" xmlns="http://www.w3.org/2000/svg">
<path d="M15 19.5 7.5 12 15 4.5" stroke="#1B4B66" stroke-width="2" stroke-linecap="round" stroke-linejoin="round"/>
</symbol>
<symbol fill="none" viewBox="0 0 24 24" id="svg-pencil" xmlns="http://www.w3.org/2000/svg">
<path d="M8.69 20.25H4.5a.75.75 0 0 1-.75-.75v-4.19a.75.75 0 0 1 .22-.53L15.22 3.53a.75.75 0 0 1 1.06 0l4.19 4.19a.75.75 0 0 1 0 1.06L9.22 20.03a.75.75 0 0 1-.53.22ZM12.75 6 18 11.25M10.154 19.154 5 14" stroke="#fff" stroke-width="2" stroke-linecap="round" stroke-linejoin="round"/>
</symbol>
</svg>